<?xml version="1.0" encoding="UTF-8" standalone="no"?>
<!-- Created with Inkscape (http://www.inkscape.org/) -->

<svg
   width="173.95143mm"
   height="49.999897mm"
   viewBox="0 0 173.95143 49.999897"
   version="1.1"
   id="svg1"
   xmlns:inkscape="http://www.inkscape.org/namespaces/inkscape"
   xmlns:sodipodi="http://sodipodi.sourceforge.net/DTD/sodipodi-0.dtd"
   xmlns="http://www.w3.org/2000/svg"
   xmlns:svg="http://www.w3.org/2000/svg">
  <sodipodi:namedview
     id="namedview1"
     pagecolor="#ffffff"
     bordercolor="#000000"
     borderopacity="0.25"
     inkscape:showpageshadow="2"
     inkscape:pageopacity="0.0"
     inkscape:pagecheckerboard="0"
     inkscape:deskcolor="#d1d1d1"
     inkscape:document-units="mm">
    <inkscape:page
       x="0"
       y="0"
       width="173.95143"
       height="49.999897"
       id="page2"
       margin="0"
       bleed="0" />
  </sodipodi:namedview>
  <defs
     id="defs1">
    <clipPath
       clipPathUnits="userSpaceOnUse"
       id="clipPath82">
      <path
         d="M 0,325.984 H 737.008 V 0 H 0 Z"
         transform="translate(-580.40662,-117.6604)"
         id="path82" />
    </clipPath>
    <clipPath
       clipPathUnits="userSpaceOnUse"
       id="clipPath80">
      <path
         d="M 0,325.984 H 737.008 V 0 H 0 Z"
         transform="translate(-572.97112,-123.3802)"
         id="path80" />
    </clipPath>
    <clipPath
       clipPathUnits="userSpaceOnUse"
       id="clipPath78">
      <path
         d="M 0,325.984 H 737.008 V 0 H 0 Z"
         transform="translate(-552.82751,-118.7444)"
         id="path78" />
    </clipPath>
    <clipPath
       clipPathUnits="userSpaceOnUse"
       id="clipPath76">
      <path
         d="M 0,325.984 H 737.008 V 0 H 0 Z"
         transform="translate(-531.67421,-122.3704)"
         id="path76" />
    </clipPath>
    <clipPath
       clipPathUnits="userSpaceOnUse"
       id="clipPath74">
      <path
         d="M 0,325.984 H 737.008 V 0 H 0 Z"
         transform="translate(-510.03451,-123.3802)"
         id="path74" />
    </clipPath>
    <clipPath
       clipPathUnits="userSpaceOnUse"
       id="clipPath72">
      <path
         d="M 0,325.984 H 737.008 V 0 H 0 Z"
         id="path72" />
    </clipPath>
    <clipPath
       clipPathUnits="userSpaceOnUse"
       id="clipPath70">
      <path
         d="M 0,325.984 H 737.008 V 0 H 0 Z"
         transform="translate(-480.02471,-118.7444)"
         id="path70" />
    </clipPath>
    <clipPath
       clipPathUnits="userSpaceOnUse"
       id="clipPath68">
      <path
         d="M 0,325.984 H 737.008 V 0 H 0 Z"
         transform="translate(-447.35871,-121.0999)"
         id="path68" />
    </clipPath>
    <clipPath
       clipPathUnits="userSpaceOnUse"
       id="clipPath66">
      <path
         d="M 0,325.984 H 737.008 V 0 H 0 Z"
         transform="translate(-421.68491,-115.1194)"
         id="path66" />
    </clipPath>
    <clipPath
       clipPathUnits="userSpaceOnUse"
       id="clipPath64">
      <path
         d="M 0,325.984 H 737.008 V 0 H 0 Z"
         transform="translate(-404.71711,-123.3802)"
         id="path64" />
    </clipPath>
    <clipPath
       clipPathUnits="userSpaceOnUse"
       id="clipPath62">
      <path
         d="M 0,325.984 H 737.008 V 0 H 0 Z"
         id="path62" />
    </clipPath>
    <clipPath
       clipPathUnits="userSpaceOnUse"
       id="clipPath60">
      <path
         d="M 0,325.984 H 737.008 V 0 H 0 Z"
         id="path60" />
    </clipPath>
    <clipPath
       clipPathUnits="userSpaceOnUse"
       id="clipPath58">
      <path
         d="M 0,325.984 H 737.008 V 0 H 0 Z"
         transform="translate(-360.13121,-127.9397)"
         id="path58" />
    </clipPath>
    <clipPath
       clipPathUnits="userSpaceOnUse"
       id="clipPath56">
      <path
         d="M 0,325.984 H 737.008 V 0 H 0 Z"
         transform="translate(-337.96961,-127.9397)"
         id="path56" />
    </clipPath>
    <clipPath
       clipPathUnits="userSpaceOnUse"
       id="clipPath54">
      <path
         d="M 0,325.984 H 737.008 V 0 H 0 Z"
         transform="translate(-310.08871,-120.98761)"
         id="path54" />
    </clipPath>
    <clipPath
       clipPathUnits="userSpaceOnUse"
       id="clipPath52">
      <path
         d="M 0,325.984 H 737.008 V 0 H 0 Z"
         transform="translate(-506.48371,-169.2283)"
         id="path52" />
    </clipPath>
    <clipPath
       clipPathUnits="userSpaceOnUse"
       id="clipPath50">
      <path
         d="M 0,325.984 H 737.008 V 0 H 0 Z"
         transform="translate(-492.09511,-166.1624)"
         id="path50" />
    </clipPath>
    <clipPath
       clipPathUnits="userSpaceOnUse"
       id="clipPath48">
      <path
         d="M 0,325.984 H 737.008 V 0 H 0 Z"
         transform="translate(-469.82261,-169.2283)"
         id="path48" />
    </clipPath>
    <clipPath
       clipPathUnits="userSpaceOnUse"
       id="clipPath46">
      <path
         d="M 0,325.984 H 737.008 V 0 H 0 Z"
         transform="translate(-442.27671,-166.1624)"
         id="path46" />
    </clipPath>
    <clipPath
       clipPathUnits="userSpaceOnUse"
       id="clipPath44">
      <path
         d="M 0,325.984 H 737.008 V 0 H 0 Z"
         id="path44" />
    </clipPath>
    <clipPath
       clipPathUnits="userSpaceOnUse"
       id="clipPath42">
      <path
         d="M 0,325.984 H 737.008 V 0 H 0 Z"
         transform="translate(-412.90071,-155.8831)"
         id="path42" />
    </clipPath>
    <clipPath
       clipPathUnits="userSpaceOnUse"
       id="clipPath40">
      <path
         d="M 0,325.984 H 737.008 V 0 H 0 Z"
         transform="translate(-410.99741,-169.48951)"
         id="path40" />
    </clipPath>
    <clipPath
       clipPathUnits="userSpaceOnUse"
       id="clipPath38">
      <path
         d="M 0,325.984 H 737.008 V 0 H 0 Z"
         transform="translate(-391.67511,-161.60281)"
         id="path38" />
    </clipPath>
    <clipPath
       clipPathUnits="userSpaceOnUse"
       id="clipPath36">
      <path
         d="M 0,325.984 H 737.008 V 0 H 0 Z"
         transform="translate(-372.83921,-169.2283)"
         id="path36" />
    </clipPath>
    <clipPath
       clipPathUnits="userSpaceOnUse"
       id="clipPath34">
      <path
         d="M 0,325.984 H 737.008 V 0 H 0 Z"
         id="path34" />
    </clipPath>
    <clipPath
       clipPathUnits="userSpaceOnUse"
       id="clipPath32">
      <path
         d="M 0,325.984 H 737.008 V 0 H 0 Z"
         transform="translate(-342.45491,-160.5931)"
         id="path32" />
    </clipPath>
    <clipPath
       clipPathUnits="userSpaceOnUse"
       id="clipPath30">
      <path
         d="M 0,325.984 H 737.008 V 0 H 0 Z"
         transform="translate(-324.47931,-176.62921)"
         id="path30" />
    </clipPath>
    <clipPath
       clipPathUnits="userSpaceOnUse"
       id="clipPath28">
      <path
         d="M 0,325.984 H 737.008 V 0 H 0 Z"
         transform="translate(-576.85882,-207.4505)"
         id="path28" />
    </clipPath>
    <clipPath
       clipPathUnits="userSpaceOnUse"
       id="clipPath26">
      <path
         d="M 0,325.984 H 737.008 V 0 H 0 Z"
         transform="translate(-556.45252,-195.86311)"
         id="path26" />
    </clipPath>
    <clipPath
       clipPathUnits="userSpaceOnUse"
       id="clipPath24">
      <path
         d="M 0,325.984 H 737.008 V 0 H 0 Z"
         transform="translate(-527.82562,-202.44221)"
         id="path24" />
    </clipPath>
    <clipPath
       clipPathUnits="userSpaceOnUse"
       id="clipPath22">
      <path
         d="M 0,325.984 H 737.008 V 0 H 0 Z"
         transform="translate(-512.80111,-207.7127)"
         id="path22" />
    </clipPath>
    <clipPath
       clipPathUnits="userSpaceOnUse"
       id="clipPath20">
      <path
         d="M 0,325.984 H 737.008 V 0 H 0 Z"
         transform="translate(-489.32941,-204.38551)"
         id="path20" />
    </clipPath>
    <clipPath
       clipPathUnits="userSpaceOnUse"
       id="clipPath18">
      <path
         d="M 0,325.984 H 737.008 V 0 H 0 Z"
         transform="translate(-456.02961,-214.85191)"
         id="path18" />
    </clipPath>
    <clipPath
       clipPathUnits="userSpaceOnUse"
       id="clipPath16">
      <path
         d="M 0,325.984 H 737.008 V 0 H 0 Z"
         transform="translate(-438.13121,-198.8162)"
         id="path16" />
    </clipPath>
    <clipPath
       clipPathUnits="userSpaceOnUse"
       id="clipPath14">
      <path
         d="M 0,325.984 H 737.008 V 0 H 0 Z"
         transform="translate(-422.02181,-207.7127)"
         id="path14" />
    </clipPath>
    <clipPath
       clipPathUnits="userSpaceOnUse"
       id="clipPath12">
      <path
         d="M 0,325.984 H 737.008 V 0 H 0 Z"
         transform="translate(-402.51301,-199.826)"
         id="path12" />
    </clipPath>
    <clipPath
       clipPathUnits="userSpaceOnUse"
       id="clipPath10">
      <path
         d="M 0,325.984 H 737.008 V 0 H 0 Z"
         transform="translate(-375.15461,-204.38551)"
         id="path10" />
    </clipPath>
    <clipPath
       clipPathUnits="userSpaceOnUse"
       id="clipPath8">
      <path
         d="M 0,325.984 H 737.008 V 0 H 0 Z"
         transform="translate(-356.39291,-194.1062)"
         id="path8" />
    </clipPath>
    <clipPath
       clipPathUnits="userSpaceOnUse"
       id="clipPath6">
      <path
         d="M 0,325.984 H 737.008 V 0 H 0 Z"
         transform="translate(-348.77131,-199.826)"
         id="path6" />
    </clipPath>
    <clipPath
       clipPathUnits="userSpaceOnUse"
       id="clipPath4">
      <path
         d="M 0,325.984 H 737.008 V 0 H 0 Z"
         transform="translate(-318.34951,-209.0579)"
         id="path4" />
    </clipPath>
  </defs>
  <g
     inkscape:label="Layer 1"
     inkscape:groupmode="layer"
     id="layer1"
     transform="translate(-21.226603,-126.87465)">
    <path
       id="path247"
       d="m 28.838494,126.87466 h -7.61189 l 12.70247,22.00099 3.80577,-6.59201 z"
       style="display:inline;fill:#00b6c9;fill-opacity:1;fill-rule:nonzero;stroke:none;stroke-width:0.352778" />
    <path
       id="path248"
       d="m 59.035074,126.87466 -15.09818,26.15142 -3.80577,6.59165 9.96315,17.25683 28.86745,-49.9999 z"
       style="display:inline;fill:#00b6c9;fill-opacity:1;fill-rule:nonzero;stroke:none;stroke-width:0.352778" />
    <path
       id="path249"
       d="m 0,0 c -1.832,-6.84 -3.663,-13.681 -5.457,-20.521 h -4.935 L -15.55,5.794 h 4.299 c 1.196,-6.653 2.392,-13.232 3.551,-19.885 l 5.009,19.885 h 5.382 l 4.972,-19.961 4.261,19.961 h 4.261 L 10.354,-20.521 H 5.495 Z"
       style="display:inline;fill:#003146;fill-opacity:1;fill-rule:nonzero;stroke:none"
       transform="matrix(0.35277776,0,0,-0.35277776,97.033474,135.62451)"
       clip-path="url(#clipPath4)" />
    <path
       id="path250"
       d="M 0,0 C -0.112,2.803 -1.458,4.597 -4.224,4.597 -6.915,4.597 -8.448,2.355 -8.56,0 Z m 0.86,-4.71 c 1.233,-0.337 2.466,-0.71 3.7,-1.084 -0.859,-2.729 -3.439,-5.869 -8.597,-5.869 -5.195,0 -8.896,4 -8.896,9.831 0,5.831 3.439,9.831 8.709,9.831 5.233,0 8.522,-3.514 8.522,-9.232 0,-0.561 0,-1.16 -0.074,-1.795 H -8.747 c 0.075,-2.766 1.981,-5.233 4.71,-5.233 1.981,0 3.925,0.934 4.897,3.551"
       style="display:inline;fill:#003146;fill-opacity:1;fill-rule:nonzero;stroke:none"
       transform="matrix(0.35277776,0,0,-0.35277776,107.7656,138.88131)"
       clip-path="url(#clipPath6)" />
    <path
       id="path251"
       d="m 0,0 c 1.346,0.262 2.654,0.523 3.962,0.748 0.262,-1.495 1.159,-3.29 4.187,-3.29 0.672,0 3.999,0.262 3.999,2.654 0,4.523 -11.587,-0.149 -11.587,7.963 0,3.214 3.215,5.643 7.251,5.643 4.037,0 7.476,-1.682 8.037,-5.906 -1.345,-0.224 -2.655,-0.486 -3.962,-0.747 -0.262,2.355 -1.72,3.214 -3.962,3.214 -1.982,0 -3.327,-1.046 -3.327,-2.204 0,-1.533 1.42,-1.945 3.663,-2.169 4.261,-0.448 7.886,-1.383 7.886,-5.794 0,-3.962 -3.475,-6.055 -7.998,-6.055 C 3.29,-5.943 0.523,-3.401 0,0"
       style="display:inline;fill:#003146;fill-opacity:1;fill-rule:nonzero;stroke:none"
       transform="matrix(0.35277776,0,0,-0.35277776,110.45433,140.89913)"
       clip-path="url(#clipPath8)" />
    <path
       id="path252"
       d="M 0,0 V 3.065 H 3.252 V 8.523 H 7.288 V 3.065 h 3.926 V 0 H 7.288 v -10.728 c 0,-1.495 0.449,-1.943 1.757,-1.943 0.56,0 1.159,0.074 1.795,0.074 v -3.251 l -2.393,-0.15 H 7.962 c -3.551,0 -4.71,1.907 -4.71,5.532 V 0 Z"
       style="display:inline;fill:#003146;fill-opacity:1;fill-rule:nonzero;stroke:none"
       transform="matrix(0.35277776,0,0,-0.35277776,117.07304,137.27282)"
       clip-path="url(#clipPath10)" />
    <path
       id="path253"
       d="M 0,0 C -0.111,2.803 -1.458,4.597 -4.224,4.597 -6.915,4.597 -8.447,2.355 -8.56,0 Z m 0.859,-4.71 c 1.234,-0.337 2.467,-0.71 3.701,-1.084 -0.859,-2.729 -3.438,-5.869 -8.597,-5.869 -5.195,0 -8.896,4 -8.896,9.831 0,5.831 3.439,9.831 8.709,9.831 5.234,0 8.523,-3.514 8.523,-9.232 0,-0.561 0,-1.16 -0.075,-1.795 H -8.747 c 0.075,-2.766 1.981,-5.233 4.71,-5.233 1.981,0 3.926,0.934 4.896,3.551"
       style="display:inline;fill:#003146;fill-opacity:1;fill-rule:nonzero;stroke:none"
       transform="matrix(0.35277776,0,0,-0.35277776,126.72448,138.88131)"
       clip-path="url(#clipPath12)" />
    <path
       id="path254"
       d="m 0,0 v -3.477 h -2.131 c -2.765,0 -4.037,-1.831 -4.037,-5.569 v -10.129 h -4.036 v 18.913 h 3.663 l 0.373,-2.056 c 0.71,1.085 2.02,2.43 4.374,2.43 C -1.271,0.112 -0.523,0.075 0,0"
       style="display:inline;fill:#003146;fill-opacity:1;fill-rule:nonzero;stroke:none"
       transform="matrix(0.35277776,0,0,-0.35277776,133.60675,136.09906)"
       clip-path="url(#clipPath14)" />
    <path
       id="path255"
       d="M 0,0 C 0,3.887 -1.31,5.569 -4.263,5.569 -7.103,5.569 -8.486,3.738 -8.486,0 v -10.279 h -4.036 V 8.634 h 3.663 l 0.373,-2.055 c 0.635,1.159 2.654,2.429 5.009,2.429 C 1.943,8.971 3.999,6.055 3.999,0 V -10.279 H 0 Z"
       style="display:inline;fill:#003146;fill-opacity:1;fill-rule:nonzero;stroke:none"
       transform="matrix(0.35277776,0,0,-0.35277776,139.28979,139.23755)"
       clip-path="url(#clipPath16)" />
    <path
       id="path256"
       d="m 0,0 h 4.073 l 12.15,-19.026 V 0 h 4.186 V -26.314 H 16.297 L 4.187,-7.326 V -26.314 H 0 Z"
       style="display:inline;fill:#003146;fill-opacity:1;fill-rule:nonzero;stroke:none"
       transform="matrix(0.35277776,0,0,-0.35277776,145.60395,133.58051)"
       clip-path="url(#clipPath18)" />
    <path
       id="path257"
       d="m 0,0 c -2.915,0 -4.784,-2.28 -4.784,-6.391 0,-4.15 1.869,-6.43 4.784,-6.43 2.879,0 4.785,2.28 4.785,6.43 C 4.785,-2.28 2.879,0 0,0 m 0,-16.222 c -5.494,0 -8.783,3.999 -8.783,9.831 0,5.83 3.289,9.83 8.783,9.83 5.42,0 8.747,-4.037 8.747,-9.83 0,-5.832 -3.327,-9.831 -8.747,-9.831"
       style="display:inline;fill:#003146;fill-opacity:1;fill-rule:nonzero;stroke:none"
       transform="matrix(0.35277776,0,0,-0.35277776,157.35138,137.27282)"
       clip-path="url(#clipPath20)" />
    <path
       id="path258"
       d="m 0,0 v -3.477 h -2.131 c -2.766,0 -4.037,-1.831 -4.037,-5.569 v -10.129 h -4.037 v 18.913 h 3.663 l 0.374,-2.056 c 0.711,1.085 2.019,2.43 4.374,2.43 C -1.272,0.112 -0.523,0.075 0,0"
       style="display:inline;fill:#003146;fill-opacity:1;fill-rule:nonzero;stroke:none"
       transform="matrix(0.35277776,0,0,-0.35277776,165.63167,136.09906)"
       clip-path="url(#clipPath22)" />
    <path
       id="path259"
       d="m 0,0 -4.299,-13.905 h -4.597 l -4.261,18.913 h 4.186 l 2.578,-13.605 4.15,13.605 H 2.205 L 6.579,-8.634 9.382,5.008 h 4.186 L 9.083,-13.905 H 4.447 Z"
       style="display:inline;fill:#003146;fill-opacity:1;fill-rule:nonzero;stroke:none"
       transform="matrix(0.35277776,0,0,-0.35277776,170.93198,137.95838)"
       clip-path="url(#clipPath24)" />
    <path
       id="path260"
       d="m 0,0 v 0.935 h -4.448 c -3.326,0 -3.999,-1.682 -3.999,-2.617 0,-1.271 0.859,-2.616 3.326,-2.616 C -1.831,-4.298 0,-2.055 0,0 m -7.887,5.084 c -1.308,0.224 -2.654,0.523 -3.999,0.748 0.411,4.186 3.85,6.129 7.812,6.129 5.345,0 8.111,-2.616 8.111,-7.774 v -6.579 c 0,-1.122 0.225,-1.757 1.009,-1.757 0.3,0 0.785,0.075 0.973,0.149 v -3.289 c -1.16,-0.299 -1.907,-0.299 -2.393,-0.299 -1.943,0 -2.99,1.159 -3.29,2.692 -0.747,-0.935 -2.728,-2.729 -5.905,-2.804 -4.373,0 -6.99,2.429 -6.99,6.018 0,2.953 2.728,5.645 7.701,5.645 H 0 v 1.121 c 0,1.458 -0.598,3.438 -4.074,3.438 -2.318,0 -3.738,-1.158 -3.813,-3.438"
       style="display:inline;fill:#003146;fill-opacity:1;fill-rule:nonzero;stroke:none"
       transform="matrix(0.35277776,0,0,-0.35277776,181.03091,140.27934)"
       clip-path="url(#clipPath26)" />
    <path
       id="path261"
       d="M 0,0 H 4.186 C 2.055,-5.793 -0.15,-11.55 -2.28,-17.344 l -3.327,-8.971 h -3.925 l 2.691,7.402 L -13.868,0 h 4.185 c 1.646,-4.672 3.216,-9.344 4.86,-13.979 z"
       style="display:inline;fill:#003146;fill-opacity:1;fill-rule:nonzero;stroke:none"
       transform="matrix(0.35277776,0,0,-0.35277776,188.2298,136.19156)"
       clip-path="url(#clipPath28)" />
    <path
       id="path262"
       d="m 0,0 v -17.493 c 0,-5.906 -4.448,-9.196 -9.868,-9.196 -5.42,0 -9.943,3.29 -9.943,9.196 V 0 h 4.186 v -17.493 c 0,-3.364 2.542,-5.682 5.757,-5.682 3.178,0 5.719,2.318 5.719,5.682 V 0 Z"
       style="display:inline;fill:#003146;fill-opacity:1;fill-rule:nonzero;stroke:none"
       transform="matrix(0.35277776,0,0,-0.35277776,99.195934,147.06463)"
       clip-path="url(#clipPath30)" />
    <path
       id="path263"
       d="M 0,0 C 0,3.888 -1.308,5.569 -4.261,5.569 -7.102,5.569 -8.485,3.738 -8.485,0 v -10.278 h -4.037 V 8.635 h 3.663 l 0.374,-2.056 c 0.635,1.159 2.654,2.43 5.008,2.43 C 1.944,8.971 4,6.056 4,0 V -10.278 H 0 Z"
       style="display:inline;fill:#003146;fill-opacity:1;fill-rule:nonzero;stroke:none"
       transform="matrix(0.35277776,0,0,-0.35277776,105.53732,152.72181)"
       clip-path="url(#clipPath32)" />
    <path
       id="path264"
       d="m 355.87,150.315 h -4.038 v 18.914 h 4.038 z m -4.298,26.314 h 4.56 v -4.523 h -4.56 z"
       style="display:inline;fill:#003146;fill-opacity:1;fill-rule:nonzero;stroke:none"
       transform="matrix(0.35277776,0,0,-0.35277776,-15.273156,209.37548)"
       clip-path="url(#clipPath34)" />
    <path
       id="path265"
       d="m 0,0 h 4.224 l -7.028,-18.914 h -4 L -13.868,0 h 4.224 l 4.822,-13.98 z"
       style="display:inline;fill:#003146;fill-opacity:1;fill-rule:nonzero;stroke:none"
       transform="matrix(0.35277776,0,0,-0.35277776,116.25622,149.6755)"
       clip-path="url(#clipPath36)" />
    <path
       id="path266"
       d="M 0,0 C -0.112,2.804 -1.458,4.598 -4.224,4.598 -6.915,4.598 -8.447,2.355 -8.56,0 Z m 0.859,-4.71 c 1.234,-0.337 2.467,-0.71 3.701,-1.084 -0.86,-2.728 -3.439,-5.869 -8.597,-5.869 -5.195,0 -8.897,4 -8.897,9.832 0,5.831 3.44,9.83 8.71,9.83 5.234,0 8.523,-3.514 8.523,-9.232 0,-0.561 0,-1.16 -0.075,-1.794 H -8.747 c 0.075,-2.767 1.981,-5.234 4.71,-5.234 1.98,0 3.925,0.935 4.896,3.551"
       style="display:inline;fill:#003146;fill-opacity:1;fill-rule:nonzero;stroke:none"
       transform="matrix(0.35277776,0,0,-0.35277776,122.90111,152.36561)"
       clip-path="url(#clipPath38)" />
    <path
       id="path267"
       d="m 0,0 v -3.476 h -2.131 c -2.766,0 -4.037,-1.832 -4.037,-5.57 v -10.129 h -4.036 v 18.914 h 3.663 l 0.373,-2.056 c 0.711,1.084 2.019,2.429 4.374,2.429 C -1.271,0.112 -0.523,0.075 0,0"
       style="display:inline;fill:#003146;fill-opacity:1;fill-rule:nonzero;stroke:none"
       transform="matrix(0.35277776,0,0,-0.35277776,129.71759,149.58336)"
       clip-path="url(#clipPath40)" />
    <path
       id="path268"
       d="m 0,0 c 1.346,0.263 2.654,0.523 3.962,0.749 0.263,-1.496 1.159,-3.29 4.186,-3.29 0.673,0 4,0.262 4,2.654 0,4.523 -11.586,-0.15 -11.586,7.962 0,3.214 3.213,5.644 7.25,5.644 4.037,0 7.476,-1.683 8.037,-5.907 -1.346,-0.224 -2.654,-0.485 -3.962,-0.747 -0.262,2.355 -1.72,3.214 -3.962,3.214 -1.982,0 -3.327,-1.046 -3.327,-2.204 0,-1.533 1.421,-1.944 3.663,-2.169 4.261,-0.448 7.887,-1.383 7.887,-5.793 0,-3.963 -3.476,-6.056 -8,-6.056 C 3.289,-5.943 0.523,-3.4 0,0"
       style="display:inline;fill:#003146;fill-opacity:1;fill-rule:nonzero;stroke:none"
       transform="matrix(0.35277776,0,0,-0.35277776,130.38903,154.38339)"
       clip-path="url(#clipPath42)" />
    <path
       id="path269"
       d="m 438.055,150.315 h -4.037 v 18.914 h 4.037 z m -4.299,26.314 h 4.56 v -4.523 h -4.56 z"
       style="display:inline;fill:#003146;fill-opacity:1;fill-rule:nonzero;stroke:none"
       transform="matrix(0.35277776,0,0,-0.35277776,-15.273156,209.37548)"
       clip-path="url(#clipPath44)" />
    <path
       id="path270"
       d="M 0,0 V 3.066 H 3.252 V 8.523 H 7.289 V 3.066 h 3.925 V 0 H 7.289 v -10.727 c 0,-1.496 0.448,-1.944 1.757,-1.944 0.56,0 1.158,0.074 1.794,0.074 v -3.251 L 8.447,-15.997 H 7.962 c -3.552,0 -4.71,1.906 -4.71,5.531 V 0 Z"
       style="display:inline;fill:#003146;fill-opacity:1;fill-rule:nonzero;stroke:none"
       transform="matrix(0.35277776,0,0,-0.35277776,140.75223,150.75708)"
       clip-path="url(#clipPath46)" />
    <path
       id="path271"
       d="M 0,0 H 4.186 C 2.056,-5.794 -0.15,-11.55 -2.28,-17.344 l -3.327,-8.971 h -3.925 l 2.691,7.401 L -13.868,0 h 4.186 c 1.645,-4.672 3.215,-9.345 4.859,-13.98 z"
       style="display:inline;fill:#003146;fill-opacity:1;fill-rule:nonzero;stroke:none"
       transform="matrix(0.35277776,0,0,-0.35277776,150.46981,149.6755)"
       clip-path="url(#clipPath48)" />
    <path
       id="path272"
       d="m 0,0 c -2.916,0 -4.784,-2.279 -4.784,-6.391 0,-4.149 1.868,-6.429 4.784,-6.429 2.879,0 4.784,2.28 4.784,6.429 C 4.784,-2.279 2.879,0 0,0 m 0,-16.223 c -5.494,0 -8.783,4 -8.783,9.832 0,5.831 3.289,9.83 8.783,9.83 5.42,0 8.747,-4.036 8.747,-9.83 0,-5.832 -3.327,-9.832 -8.747,-9.832"
       style="display:inline;fill:#003146;fill-opacity:1;fill-rule:nonzero;stroke:none"
       transform="matrix(0.35277776,0,0,-0.35277776,158.32705,150.75708)"
       clip-path="url(#clipPath50)" />
    <path
       id="path273"
       d="M 0,0 V 2.318 C 0,5.383 1.42,7.401 5.195,7.401 H 7.961 V 3.962 H 5.681 C 4.598,3.962 4.037,3.289 4.037,2.056 V 0 H 7.588 V -3.066 H 4.037 V -18.914 H 0 V -3.066 H -3.253 V 0 Z"
       style="display:inline;fill:#003146;fill-opacity:1;fill-rule:nonzero;stroke:none"
       transform="matrix(0.35277776,0,0,-0.35277776,163.40303,149.6755)"
       clip-path="url(#clipPath52)" />
    <path
       id="path274"
       d="M 0,0 H 8.261 L 4.149,11.85 Z M 9.457,-3.551 H -1.196 L -3.065,-8.896 H -7.401 L 2.13,17.419 h 4 l 9.532,-26.315 h -4.336 z"
       style="display:inline;fill:#003146;fill-opacity:1;fill-rule:nonzero;stroke:none"
       transform="matrix(0.35277776,0,0,-0.35277776,94.119244,166.69375)"
       clip-path="url(#clipPath54)" />
    <path
       id="path275"
       d="m 0,0 c -2.953,0 -4.672,-2.279 -4.672,-6.392 0,-4.148 1.719,-6.428 4.672,-6.428 2.916,0 4.784,2.28 4.784,6.428 C 4.784,-2.279 2.916,0 0,0 m -8.747,3.065 h 3.701 L -4.672,0.674 C -4,1.72 -1.906,3.438 0.822,3.438 c 4.71,0 8.074,-4.036 8.074,-9.83 0,-5.831 -2.99,-9.831 -8.074,-9.831 -2.541,0 -4.747,1.534 -5.494,2.655 v -9.681 h -4.075 z"
       style="display:inline;fill:#003146;fill-opacity:1;fill-rule:nonzero;stroke:none"
       transform="matrix(0.35277776,0,0,-0.35277776,103.955,164.2412)"
       clip-path="url(#clipPath56)" />
    <path
       id="path276"
       d="m 0,0 c -2.953,0 -4.671,-2.279 -4.671,-6.392 0,-4.148 1.718,-6.428 4.671,-6.428 2.916,0 4.785,2.28 4.785,6.428 C 4.785,-2.279 2.916,0 0,0 m -8.746,3.065 h 3.7 l 0.375,-2.391 c 0.672,1.046 2.765,2.764 5.494,2.764 4.71,0 8.073,-4.036 8.073,-9.83 0,-5.831 -2.99,-9.831 -8.073,-9.831 -2.542,0 -4.747,1.534 -5.494,2.655 v -9.681 h -4.075 z"
       style="display:inline;fill:#003146;fill-opacity:1;fill-rule:nonzero;stroke:none"
       transform="matrix(0.35277776,0,0,-0.35277776,111.77312,164.2412)"
       clip-path="url(#clipPath58)" />
    <path
       id="path277"
       d="m 377.583,112.091 h -4.037 v 26.315 h 4.037 z"
       style="display:inline;fill:#003146;fill-opacity:1;fill-rule:nonzero;stroke:none"
       transform="matrix(0.35277776,0,0,-0.35277776,-15.273156,209.37548)"
       clip-path="url(#clipPath60)" />
    <path
       id="path278"
       d="m 387.19,112.091 h -4.037 v 18.914 h 4.037 z m -4.3,26.316 h 4.561 v -4.523 h -4.561 z"
       style="display:inline;fill:#003146;fill-opacity:1;fill-rule:nonzero;stroke:none"
       transform="matrix(0.35277776,0,0,-0.35277776,-15.273156,209.37548)"
       clip-path="url(#clipPath62)" />
    <path
       id="path279"
       d="M 0,0 C -0.111,2.804 -1.457,4.598 -4.224,4.598 -6.914,4.598 -8.447,2.354 -8.56,0 Z m 0.86,-4.71 c 1.234,-0.337 2.467,-0.71 3.701,-1.084 -0.86,-2.728 -3.439,-5.869 -8.597,-5.869 -5.196,0 -8.897,4 -8.897,9.831 0,5.831 3.439,9.83 8.709,9.83 5.234,0 8.523,-3.514 8.523,-9.231 0,-0.562 0,-1.16 -0.075,-1.795 h -12.97 c 0.075,-2.766 1.98,-5.233 4.71,-5.233 1.98,0 3.925,0.935 4.896,3.551"
       style="display:inline;fill:#003146;fill-opacity:1;fill-rule:nonzero;stroke:none"
       transform="matrix(0.35277776,0,0,-0.35277776,127.50204,165.84969)"
       clip-path="url(#clipPath64)" />
    <path
       id="path280"
       d="M 0,0 C 2.915,0 4.672,2.28 4.672,6.429 4.672,10.541 2.915,12.82 0,12.82 -2.916,12.82 -4.859,10.541 -4.859,6.429 -4.859,2.28 -2.916,0 0,0 m 8.746,-3.028 h -3.7 L 4.672,-0.673 C 3.999,-1.72 1.906,-3.402 -0.786,-3.402 c -4.747,0 -8.186,4 -8.186,9.831 0,5.831 3.066,9.83 8.186,9.83 2.543,0 4.71,-1.57 5.458,-2.654 v 9.682 h 4.074 z"
       style="display:inline;fill:#003146;fill-opacity:1;fill-rule:nonzero;stroke:none"
       transform="matrix(0.35277776,0,0,-0.35277776,133.4879,168.76392)"
       clip-path="url(#clipPath66)" />
    <path
       id="path281"
       d="m 0,0 c 0,-2.467 1.757,-5.869 6.279,-5.869 3.14,0 5.832,1.533 5.832,4.374 0,3.326 -3.028,3.999 -5.832,4.224 -4.336,0.411 -9.717,1.832 -9.717,7.326 0,5.383 5.083,7.626 9.494,7.626 4.747,0 9.382,-2.842 9.569,-7.663 L 11.662,9.345 c -0.299,3.438 -2.99,4.784 -5.606,4.784 -2.579,0 -5.383,-1.121 -5.383,-4.074 0,-1.757 1.458,-3.327 5.831,-3.813 4.262,-0.485 9.756,-1.532 9.756,-7.737 0,-4.71 -4.074,-7.888 -9.981,-7.888 -7.4,0 -10.316,4.71 -10.466,8.635 z"
       style="display:inline;fill:#003146;fill-opacity:1;fill-rule:nonzero;stroke:none"
       transform="matrix(0.35277776,0,0,-0.35277776,142.54505,166.65413)"
       clip-path="url(#clipPath68)" />
    <path
       id="path282"
       d="m 0,0 c 1.346,-0.224 2.691,-0.486 3.999,-0.747 -0.635,-3.103 -3.288,-6.28 -8.26,-6.28 -5.457,0 -8.933,3.963 -8.933,9.831 0,5.831 3.476,9.83 8.933,9.83 4.972,0 7.439,-3.102 8.186,-6.317 C 2.579,6.056 1.234,5.794 -0.074,5.569 c -0.636,2.43 -2.206,3.626 -4.15,3.626 -3.177,0 -4.858,-2.579 -4.858,-6.391 0,-3.813 1.681,-6.429 4.858,-6.429 2.093,0 3.626,1.271 4.224,3.625"
       style="display:inline;fill:#003146;fill-opacity:1;fill-rule:nonzero;stroke:none"
       transform="matrix(0.35277776,0,0,-0.35277776,154.06888,167.4851)"
       clip-path="url(#clipPath70)" />
    <path
       id="path283"
       d="m 492.506,112.091 h -4.037 v 18.914 h 4.037 z m -4.299,26.316 h 4.56 v -4.523 h -4.56 z"
       style="display:inline;fill:#003146;fill-opacity:1;fill-rule:nonzero;stroke:none"
       transform="matrix(0.35277776,0,0,-0.35277776,-15.273156,209.37548)"
       clip-path="url(#clipPath72)" />
    <path
       id="path284"
       d="M 0,0 C -0.112,2.804 -1.457,4.598 -4.224,4.598 -6.915,4.598 -8.447,2.354 -8.56,0 Z m 0.86,-4.71 c 1.234,-0.337 2.467,-0.71 3.701,-1.084 -0.86,-2.728 -3.44,-5.869 -8.597,-5.869 -5.196,0 -8.897,4 -8.897,9.831 0,5.831 3.439,9.83 8.709,9.83 5.234,0 8.523,-3.514 8.523,-9.231 0,-0.562 0,-1.16 -0.075,-1.795 h -12.97 c 0.074,-2.766 1.98,-5.233 4.71,-5.233 1.98,0 3.924,0.935 4.896,3.551"
       style="display:inline;fill:#003146;fill-opacity:1;fill-rule:nonzero;stroke:none"
       transform="matrix(0.35277776,0,0,-0.35277776,164.65568,165.84969)"
       clip-path="url(#clipPath74)" />
    <path
       id="path285"
       d="M 0,0 C 0,3.888 -1.308,5.569 -4.261,5.569 -7.102,5.569 -8.484,3.737 -8.484,0 v -10.279 h -4.037 V 8.635 h 3.663 L -8.484,6.579 C -7.85,7.737 -5.83,9.008 -3.476,9.008 1.944,8.971 4,6.056 4,0 V -10.279 H 0 Z"
       style="display:inline;fill:#003146;fill-opacity:1;fill-rule:nonzero;stroke:none"
       transform="matrix(0.35277776,0,0,-0.35277776,172.28968,166.20593)"
       clip-path="url(#clipPath76)" />
    <path
       id="path286"
       d="m 0,0 c 1.345,-0.224 2.69,-0.486 3.999,-0.747 -0.636,-3.103 -3.289,-6.28 -8.261,-6.28 -5.458,0 -8.933,3.963 -8.933,9.831 0,5.831 3.475,9.83 8.933,9.83 4.972,0 7.439,-3.102 8.186,-6.317 C 2.579,6.056 1.233,5.794 -0.075,5.569 -0.71,7.999 -2.28,9.195 -4.224,9.195 c -3.177,0 -4.859,-2.579 -4.859,-6.391 0,-3.813 1.682,-6.429 4.859,-6.429 2.093,0 3.625,1.271 4.224,3.625"
       style="display:inline;fill:#003146;fill-opacity:1;fill-rule:nonzero;stroke:none"
       transform="matrix(0.35277776,0,0,-0.35277776,179.75209,167.4851)"
       clip-path="url(#clipPath78)" />
    <path
       id="path287"
       d="M 0,0 C -0.112,2.804 -1.458,4.598 -4.225,4.598 -6.915,4.598 -8.448,2.354 -8.56,0 Z m 0.859,-4.71 c 1.234,-0.337 2.467,-0.71 3.702,-1.084 -0.861,-2.728 -3.44,-5.869 -8.598,-5.869 -5.195,0 -8.896,4 -8.896,9.831 0,5.831 3.438,9.83 8.708,9.83 5.234,0 8.524,-3.514 8.524,-9.231 0,-0.562 0,-1.16 -0.075,-1.795 H -8.747 c 0.075,-2.766 1.981,-5.233 4.71,-5.233 1.981,0 3.925,0.935 4.896,3.551"
       style="display:inline;fill:#003146;fill-opacity:1;fill-rule:nonzero;stroke:none"
       transform="matrix(0.35277776,0,0,-0.35277776,186.85831,165.84969)"
       clip-path="url(#clipPath80)" />
    <path
       id="path288"
       d="m 0,0 c 1.346,0.262 2.654,0.523 3.962,0.748 0.263,-1.495 1.159,-3.289 4.186,-3.289 0.673,0 4,0.262 4,2.654 0,4.523 -11.586,-0.15 -11.586,7.961 0,3.215 3.213,5.644 7.25,5.644 4.037,0 7.476,-1.682 8.037,-5.906 -1.346,-0.224 -2.654,-0.485 -3.962,-0.748 -0.262,2.356 -1.72,3.215 -3.962,3.215 -1.982,0 -3.327,-1.046 -3.327,-2.205 0,-1.533 1.421,-1.943 3.663,-2.168 4.261,-0.449 7.887,-1.383 7.887,-5.793 0,-3.963 -3.476,-6.056 -8,-6.056 C 3.289,-5.943 0.523,-3.4 0,0"
       style="display:inline;fill:#003146;fill-opacity:1;fill-rule:nonzero;stroke:none"
       transform="matrix(0.35277776,0,0,-0.35277776,189.48139,167.86751)"
       clip-path="url(#clipPath82)" />
  </g>
</svg>
